<?xml version="1.0" encoding="UTF-8" standalone="no"?>
<!DOCTYPE svg PUBLIC "-//W3C//DTD SVG 1.1//EN"
 "http://www.w3.org/Graphics/SVG/1.1/DTD/svg11.dtd">
<!-- Generated by graphviz version 2.44.1 (20200629.0846)
 -->
<!-- Title: g Pages: 1 -->
<svg width="1439pt" height="823pt"
 viewBox="0.00 0.00 1439.37 823.00" xmlns="http://www.w3.org/2000/svg" xmlns:xlink="http://www.w3.org/1999/xlink">
<g id="graph0" class="graph" transform="scale(1 1) rotate(0) translate(4 819)">
<title>g</title>
<polygon fill="white" stroke="transparent" points="-4,4 -4,-819 1435.37,-819 1435.37,4 -4,4"/>
<g id="clust3" class="cluster">
<title>cluster_1792352913</title>
<polygon fill="#ececec" stroke="black" points="754.64,-596.2 754.64,-807 1184.64,-807 1184.64,-596.2 754.64,-596.2"/>
<text text-anchor="middle" x="836.52" y="-790.4" font-family="Times New Roman,serif" font-size="14.00">CurrentConditionsDisplay</text>
</g>
<g id="clust2" class="cluster">
<title>cluster_1745893852</title>
<polygon fill="#ececec" stroke="black" points="187.64,-608.2 187.64,-795 577.64,-795 577.64,-608.2 187.64,-608.2"/>
<text text-anchor="middle" x="225.2" y="-778.4" font-family="Times New Roman,serif" font-size="14.00">WindChill</text>
</g>
<g id="clust4" class="cluster">
<title>cluster_1794189726</title>
<polygon fill="#ececec" stroke="black" points="620.64,-8 620.64,-290.8 878.64,-290.8 878.64,-8 620.64,-8"/>
<text text-anchor="middle" x="665.56" y="-274.2" font-family="Times New Roman,serif" font-size="14.00">WeatherData</text>
</g>
<g id="clust5" class="cluster">
<title>cluster_2072199006</title>
<polygon fill="#ececec" stroke="black" points="554.64,-366.4 554.64,-553.2 944.64,-553.2 944.64,-366.4 554.64,-366.4"/>
<text text-anchor="middle" x="591.79" y="-536.6" font-family="Times New Roman,serif" font-size="14.00">HeatIndex</text>
</g>
<g id="clust1" class="cluster">
<title>cluster_1484881447</title>
<polygon fill="#ececec" stroke="black" points="156.64,-366.4 156.64,-553.2 546.64,-553.2 546.64,-366.4 156.64,-366.4"/>
<text text-anchor="middle" x="210.12" y="-536.6" font-family="Times New Roman,serif" font-size="14.00">ForecastDisplay</text>
</g>
<g id="clust6" class="cluster">
<title>cluster_2073379327</title>
<polygon fill="#ececec" stroke="black" points="952.64,-342.4 952.64,-577.2 1342.64,-577.2 1342.64,-342.4 952.64,-342.4"/>
<text text-anchor="middle" x="1007.69" y="-560.6" font-family="Times New Roman,serif" font-size="14.00">StatisticsDisplay</text>
</g>
<!-- ForecastDisplay1484881447 -->
<g id="node1" class="node">
<title>ForecastDisplay1484881447</title>
<polygon fill="#ffffff" stroke="transparent" points="538.64,-520.4 164.64,-520.4 164.64,-374.4 538.64,-374.4 538.64,-520.4"/>
<text text-anchor="start" x="169.64" y="-502.8" font-family="Times New Roman,serif" font-size="14.00">(C)ForecastDisplay</text>
<text text-anchor="start" x="169.64" y="-478.8" font-family="Times New Roman,serif" font-size="14.00">&#45; &#160;&#160;currentPressure: float [1]</text>
<text text-anchor="start" x="169.64" y="-454.8" font-family="Times New Roman,serif" font-size="14.00">&#45; &#160;&#160;lastPressure: float [1]</text>
<text text-anchor="start" x="169.64" y="-430.8" font-family="Times New Roman,serif" font-size="14.00">&#45; &#160;&#160;weatherData: WeatherData [0..1]</text>
<text text-anchor="start" x="169.64" y="-406.8" font-family="Times New Roman,serif" font-size="14.00">+ display()</text>
<text text-anchor="start" x="169.43" y="-382.8" font-family="Times New Roman,serif" font-size="14.00">+ update(temp: float, humidity: float, pressure: float, wind: float)</text>
<polygon fill="black" stroke="black" points="164.64,-495.4 164.64,-495.4 538.64,-495.4 538.64,-495.4 164.64,-495.4"/>
<polygon fill="black" stroke="black" points="164.64,-423.4 164.64,-423.4 538.64,-423.4 538.64,-423.4 164.64,-423.4"/>
<polygon fill="none" stroke="black" points="164.64,-374.4 164.64,-520.4 538.64,-520.4 538.64,-374.4 164.64,-374.4"/>
</g>
<!-- WeatherData1794189726 -->
<g id="node4" class="node">
<title>WeatherData1794189726</title>
<polygon fill="#ffffff" stroke="transparent" points="870.14,-258 629.14,-258 629.14,-16 870.14,-16 870.14,-258"/>
<text text-anchor="start" x="634.64" y="-240.4" font-family="Times New Roman,serif" font-size="14.00">(C)WeatherData</text>
<text text-anchor="start" x="634.64" y="-216.4" font-family="Times New Roman,serif" font-size="14.00">&#45; &#160;&#160;humidity: float [1]</text>
<text text-anchor="start" x="634.38" y="-192.4" font-family="Times New Roman,serif" font-size="14.00">&#45; &#160;&#160;observers: ArrayList&lt;Observer&gt; [0..*]</text>
<text text-anchor="start" x="634.64" y="-168.4" font-family="Times New Roman,serif" font-size="14.00">&#45; &#160;&#160;pressure: float [1]</text>
<text text-anchor="start" x="634.64" y="-144.4" font-family="Times New Roman,serif" font-size="14.00">&#45; &#160;&#160;temperature: float [1]</text>
<text text-anchor="start" x="634.64" y="-120.4" font-family="Times New Roman,serif" font-size="14.00">&#45; &#160;&#160;wind: float [1]</text>
<text text-anchor="start" x="634.64" y="-96.4" font-family="Times New Roman,serif" font-size="14.00">+ measurementsChanged()</text>
<text text-anchor="start" x="634.64" y="-72.4" font-family="Times New Roman,serif" font-size="14.00">+ notifyObservers()</text>
<text text-anchor="start" x="634.64" y="-48.4" font-family="Times New Roman,serif" font-size="14.00">+ registerObserver(o: Observer)</text>
<text text-anchor="start" x="634.64" y="-24.4" font-family="Times New Roman,serif" font-size="14.00">+ removeObserver(o: Observer)</text>
<polygon fill="black" stroke="black" points="629.64,-233 629.64,-233 870.64,-233 870.64,-233 629.64,-233"/>
<polygon fill="black" stroke="black" points="629.64,-113 629.64,-113 870.64,-113 870.64,-113 629.64,-113"/>
<polygon fill="none" stroke="black" points="629.14,-16 629.14,-258 870.14,-258 870.14,-16 629.14,-16"/>
</g>
<!-- ForecastDisplay1484881447&#45;&gt;WeatherData1794189726 -->
<g id="edge7" class="edge">
<title>ForecastDisplay1484881447&#45;&gt;WeatherData1794189726</title>
<path fill="none" stroke="black" d="M444.7,-374.29C497.14,-333.66 563.43,-282.29 620.8,-237.83"/>
<polygon fill="black" stroke="black" points="623.07,-240.5 628.84,-231.61 618.79,-234.97 623.07,-240.5"/>
<text text-anchor="middle" x="574" y="-319.8" font-family="Times New Roman,serif" font-size="14.00">weatherData</text>
<text text-anchor="middle" x="574" y="-303" font-family="Times New Roman,serif" font-size="14.00">[0..1]</text>
</g>
<!-- WindChill1745893852 -->
<g id="node2" class="node">
<title>WindChill1745893852</title>
<polygon fill="#ffffff" stroke="transparent" points="569.64,-762.2 195.64,-762.2 195.64,-616.2 569.64,-616.2 569.64,-762.2"/>
<text text-anchor="start" x="200.64" y="-744.6" font-family="Times New Roman,serif" font-size="14.00">(C)WindChill</text>
<text text-anchor="start" x="200.64" y="-720.6" font-family="Times New Roman,serif" font-size="14.00">&#45; &#160;&#160;weatherData: WeatherData [0..1]</text>
<text text-anchor="start" x="200.64" y="-696.6" font-family="Times New Roman,serif" font-size="14.00">&#45; &#160;&#160;windChill: float [1]</text>
<text text-anchor="start" x="200.64" y="-672.6" font-family="Times New Roman,serif" font-size="14.00">+ computeWindchillIndex(temp: float, wind: float): float</text>
<text text-anchor="start" x="200.64" y="-648.6" font-family="Times New Roman,serif" font-size="14.00">+ display()</text>
<text text-anchor="start" x="200.43" y="-624.6" font-family="Times New Roman,serif" font-size="14.00">+ update(temp: float, humidity: float, pressure: float, wind: float)</text>
<polygon fill="black" stroke="black" points="195.64,-737.2 195.64,-737.2 569.64,-737.2 569.64,-737.2 195.64,-737.2"/>
<polygon fill="black" stroke="black" points="195.64,-689.2 195.64,-689.2 569.64,-689.2 569.64,-689.2 195.64,-689.2"/>
<polygon fill="none" stroke="black" points="195.64,-616.2 195.64,-762.2 569.64,-762.2 569.64,-616.2 195.64,-616.2"/>
</g>
<!-- WindChill1745893852&#45;&gt;ForecastDisplay1484881447 -->
<g id="edge12" class="edge">
<title>WindChill1745893852&#45;&gt;ForecastDisplay1484881447</title>
<path fill="none" stroke="black" d="M371.99,-605.86C368.41,-578.12 364.44,-547.41 360.96,-520.53"/>
<polygon fill="none" stroke="black" points="368.54,-606.46 373.3,-615.93 375.49,-605.56 368.54,-606.46"/>
</g>
<!-- CurrentConditionsDisplay1792352913 -->
<g id="node3" class="node">
<title>CurrentConditionsDisplay1792352913</title>
<polygon fill="#ffffff" stroke="transparent" points="1176.14,-774.2 763.14,-774.2 763.14,-604.2 1176.14,-604.2 1176.14,-774.2"/>
<text text-anchor="start" x="768.64" y="-756.6" font-family="Times New Roman,serif" font-size="14.00">(C)CurrentConditionsDisplay</text>
<text text-anchor="start" x="768.64" y="-732.6" font-family="Times New Roman,serif" font-size="14.00">&#45; &#160;&#160;humidity: float [1]</text>
<text text-anchor="start" x="768.64" y="-708.6" font-family="Times New Roman,serif" font-size="14.00">&#45; &#160;&#160;temperature: float [1]</text>
<text text-anchor="start" x="768.64" y="-684.6" font-family="Times New Roman,serif" font-size="14.00">&#45; &#160;&#160;weatherData: Subject [0..1]</text>
<text text-anchor="start" x="768.64" y="-660.6" font-family="Times New Roman,serif" font-size="14.00">&#45; &#160;&#160;wind: float [1]</text>
<text text-anchor="start" x="768.64" y="-636.6" font-family="Times New Roman,serif" font-size="14.00">+ display()</text>
<text text-anchor="start" x="768.5" y="-612.6" font-family="Times New Roman,serif" font-size="14.00">+ update(temperature: float, humidity: float, pressure: float, wind: float)</text>
<polygon fill="black" stroke="black" points="763.64,-749.2 763.64,-749.2 1176.64,-749.2 1176.64,-749.2 763.64,-749.2"/>
<polygon fill="black" stroke="black" points="763.64,-653.2 763.64,-653.2 1176.64,-653.2 1176.64,-653.2 763.64,-653.2"/>
<polygon fill="none" stroke="black" points="763.14,-604.2 763.14,-774.2 1176.14,-774.2 1176.14,-604.2 763.14,-604.2"/>
</g>
<!-- WindChill1745893852&#45;&gt;CurrentConditionsDisplay1792352913 -->
<g id="edge11" class="edge">
<title>WindChill1745893852&#45;&gt;CurrentConditionsDisplay1792352913</title>
<path fill="none" stroke="black" d="M579.66,-689.2C614.55,-689.2 727,-689.2 762.89,-689.2"/>
<polygon fill="none" stroke="black" points="579.65,-685.7 569.65,-689.2 579.65,-692.7 579.65,-685.7"/>
</g>
<!-- WindChill1745893852&#45;&gt;WeatherData1794189726 -->
<g id="edge15" class="edge">
<title>WindChill1745893852&#45;&gt;WeatherData1794189726</title>
<path fill="none" stroke="black" d="M195.6,-619.16C134.45,-596.59 81.91,-577.2 81.91,-577.2 81.91,-577.2 81.91,-342.4 81.91,-342.4 81.91,-342.4 425.09,-237.35 619.39,-177.87"/>
<polygon fill="black" stroke="black" points="620.57,-181.17 629.11,-174.9 618.52,-174.48 620.57,-181.17"/>
<text text-anchor="middle" x="117" y="-451.6" font-family="Times New Roman,serif" font-size="14.00">weatherData</text>
<text text-anchor="middle" x="117" y="-434.8" font-family="Times New Roman,serif" font-size="14.00">[0..1]</text>
</g>
<!-- HeatIndex2072199006 -->
<g id="node5" class="node">
<title>HeatIndex2072199006</title>
<polygon fill="#ffffff" stroke="transparent" points="936.64,-520.4 562.64,-520.4 562.64,-374.4 936.64,-374.4 936.64,-520.4"/>
<text text-anchor="start" x="567.64" y="-502.8" font-family="Times New Roman,serif" font-size="14.00">(C)HeatIndex</text>
<text text-anchor="start" x="567.64" y="-478.8" font-family="Times New Roman,serif" font-size="14.00">&#45; &#160;&#160;heatIndex: float [1]</text>
<text text-anchor="start" x="567.64" y="-454.8" font-family="Times New Roman,serif" font-size="14.00">&#45; &#160;&#160;weatherData: WeatherData [0..1]</text>
<text text-anchor="start" x="567.64" y="-430.8" font-family="Times New Roman,serif" font-size="14.00">&#45; computeHeatIndex(t: float, rh: float): float</text>
<text text-anchor="start" x="567.64" y="-406.8" font-family="Times New Roman,serif" font-size="14.00">+ display()</text>
<text text-anchor="start" x="567.43" y="-382.8" font-family="Times New Roman,serif" font-size="14.00">+ update(temp: float, humidity: float, pressure: float, wind: float)</text>
<polygon fill="black" stroke="black" points="562.64,-495.4 562.64,-495.4 936.64,-495.4 936.64,-495.4 562.64,-495.4"/>
<polygon fill="black" stroke="black" points="562.64,-447.4 562.64,-447.4 936.64,-447.4 936.64,-447.4 562.64,-447.4"/>
<polygon fill="none" stroke="black" points="562.64,-374.4 562.64,-520.4 936.64,-520.4 936.64,-374.4 562.64,-374.4"/>
</g>
<!-- WindChill1745893852&#45;&gt;HeatIndex2072199006 -->
<g id="edge13" class="edge">
<title>WindChill1745893852&#45;&gt;HeatIndex2072199006</title>
<path fill="none" stroke="black" d="M501.72,-610.39C545.93,-581.5 595.86,-548.88 639.26,-520.53"/>
<polygon fill="none" stroke="black" points="499.71,-607.53 493.25,-615.93 503.54,-613.39 499.71,-607.53"/>
</g>
<!-- StatisticsDisplay2073379327 -->
<g id="node6" class="node">
<title>StatisticsDisplay2073379327</title>
<polygon fill="#ffffff" stroke="transparent" points="1334.64,-544.4 960.64,-544.4 960.64,-350.4 1334.64,-350.4 1334.64,-544.4"/>
<text text-anchor="start" x="965.64" y="-526.8" font-family="Times New Roman,serif" font-size="14.00">(C)StatisticsDisplay</text>
<text text-anchor="start" x="965.64" y="-502.8" font-family="Times New Roman,serif" font-size="14.00">&#45; &#160;&#160;maxTemp: float [1]</text>
<text text-anchor="start" x="965.64" y="-478.8" font-family="Times New Roman,serif" font-size="14.00">&#45; &#160;&#160;minTemp: float [1]</text>
<text text-anchor="start" x="965.64" y="-454.8" font-family="Times New Roman,serif" font-size="14.00">&#45; &#160;&#160;numReadings: int [1]</text>
<text text-anchor="start" x="965.64" y="-430.8" font-family="Times New Roman,serif" font-size="14.00">&#45; &#160;&#160;tempSum: float [1]</text>
<text text-anchor="start" x="965.64" y="-406.8" font-family="Times New Roman,serif" font-size="14.00">&#45; &#160;&#160;weatherData: WeatherData [0..1]</text>
<text text-anchor="start" x="965.64" y="-382.8" font-family="Times New Roman,serif" font-size="14.00">+ display()</text>
<text text-anchor="start" x="965.43" y="-358.8" font-family="Times New Roman,serif" font-size="14.00">+ update(temp: float, humidity: float, pressure: float, wind: float)</text>
<polygon fill="black" stroke="black" points="960.64,-519.4 960.64,-519.4 1334.64,-519.4 1334.64,-519.4 960.64,-519.4"/>
<polygon fill="black" stroke="black" points="960.64,-399.4 960.64,-399.4 1334.64,-399.4 1334.64,-399.4 960.64,-399.4"/>
<polygon fill="none" stroke="black" points="960.64,-350.4 960.64,-544.4 1334.64,-544.4 1334.64,-350.4 960.64,-350.4"/>
</g>
<!-- WindChill1745893852&#45;&gt;StatisticsDisplay2073379327 -->
<g id="edge14" class="edge">
<title>WindChill1745893852&#45;&gt;StatisticsDisplay2073379327</title>
<path fill="none" stroke="black" d="M579.72,-638.93C667.16,-617.07 750.64,-596.2 750.64,-596.2 750.64,-596.2 948.64,-577.2 948.64,-577.2 948.64,-577.2 970.19,-563.25 999.11,-544.53"/>
<polygon fill="none" stroke="black" points="578.73,-635.57 569.87,-641.39 580.42,-642.36 578.73,-635.57"/>
</g>
<!-- CurrentConditionsDisplay1792352913&#45;&gt;ForecastDisplay1484881447 -->
<g id="edge1" class="edge">
<title>CurrentConditionsDisplay1792352913&#45;&gt;ForecastDisplay1484881447</title>
<path fill="none" stroke="black" d="M753,-630.81C650.68,-603.7 550.64,-577.2 550.64,-577.2 550.64,-577.2 508.54,-549.95 463.07,-520.52"/>
<polygon fill="none" stroke="black" points="752.34,-634.25 762.9,-633.43 754.13,-627.49 752.34,-634.25"/>
</g>
<!-- CurrentConditionsDisplay1792352913&#45;&gt;WindChill1745893852 -->
<g id="edge6" class="edge">
<title>CurrentConditionsDisplay1792352913&#45;&gt;WindChill1745893852</title>
<path fill="none" stroke="black" d="M752.74,-689.2C702.07,-689.2 578.31,-689.2 578.31,-689.2 578.31,-689.2 575.15,-689.2 569.65,-689.2"/>
<polygon fill="none" stroke="black" points="752.89,-692.7 762.89,-689.2 752.89,-685.7 752.89,-692.7"/>
</g>
<!-- CurrentConditionsDisplay1792352913&#45;&gt;WeatherData1794189726 -->
<g id="edge4" class="edge">
<title>CurrentConditionsDisplay1792352913&#45;&gt;WeatherData1794189726</title>
<path fill="none" stroke="black" d="M1186.09,-624.47C1270.16,-599.72 1346.64,-577.2 1346.64,-577.2 1346.64,-577.2 1346.64,-342.4 1346.64,-342.4 1346.64,-342.4 1044.9,-239.09 870.45,-179.36"/>
<polygon fill="none" stroke="black" points="1184.94,-621.16 1176.34,-627.34 1186.92,-627.87 1184.94,-621.16"/>
</g>
<!-- CurrentConditionsDisplay1792352913&#45;&gt;WeatherData1794189726 -->
<g id="edge5" class="edge">
<title>CurrentConditionsDisplay1792352913&#45;&gt;WeatherData1794189726</title>
<path fill="none" stroke="black" d="M1176.32,-630.12C1257.95,-607.19 1332.64,-586.2 1332.64,-586.2 1332.64,-586.2 1360.64,-577.2 1360.64,-577.2 1360.64,-577.2 1360.64,-342.4 1360.64,-342.4 1360.64,-342.4 1282.64,-298.8 1282.64,-298.8 1282.64,-298.8 1037.84,-224.95 880.05,-177.34"/>
<polygon fill="black" stroke="black" points="880.84,-173.93 870.25,-174.39 878.82,-180.63 880.84,-173.93"/>
<text text-anchor="middle" x="1396" y="-451.6" font-family="Times New Roman,serif" font-size="14.00">weatherData</text>
<text text-anchor="middle" x="1396" y="-434.8" font-family="Times New Roman,serif" font-size="14.00">[0..1]</text>
</g>
<!-- CurrentConditionsDisplay1792352913&#45;&gt;HeatIndex2072199006 -->
<g id="edge2" class="edge">
<title>CurrentConditionsDisplay1792352913&#45;&gt;HeatIndex2072199006</title>
<path fill="none" stroke="black" d="M885.59,-596.58C862.46,-571.38 837.71,-544.4 815.76,-520.47"/>
<polygon fill="none" stroke="black" points="883.05,-598.99 892.39,-603.99 888.2,-594.26 883.05,-598.99"/>
</g>
<!-- CurrentConditionsDisplay1792352913&#45;&gt;StatisticsDisplay2073379327 -->
<g id="edge3" class="edge">
<title>CurrentConditionsDisplay1792352913&#45;&gt;StatisticsDisplay2073379327</title>
<path fill="none" stroke="black" d="M1038.2,-595.83C1050.64,-579.08 1063.64,-561.57 1076.15,-544.7"/>
<polygon fill="none" stroke="black" points="1035.3,-593.88 1032.15,-603.99 1040.92,-598.05 1035.3,-593.88"/>
</g>
<!-- WeatherData1794189726&#45;&gt;WindChill1745893852 -->
<g id="edge10" class="edge">
<title>WeatherData1794189726&#45;&gt;WindChill1745893852</title>
<path fill="none" stroke="black" d="M629.01,-166.19C431.7,-212.31 61.64,-298.8 61.64,-298.8 61.64,-298.8 0,-342.4 0,-342.4 0,-342.4 0,-577.2 0,-577.2 0,-577.2 92.05,-603.9 185.86,-631.12"/>
<polygon fill="black" stroke="black" points="184.94,-634.49 195.52,-633.92 186.89,-627.77 184.94,-634.49"/>
<text text-anchor="middle" x="27.46" y="-451.6" font-family="Times New Roman,serif" font-size="14.00">observers</text>
<text text-anchor="middle" x="27.46" y="-434.8" font-family="Times New Roman,serif" font-size="14.00">[0..*]</text>
</g>
<!-- HeatIndex2072199006&#45;&gt;WeatherData1794189726 -->
<g id="edge8" class="edge">
<title>HeatIndex2072199006&#45;&gt;WeatherData1794189726</title>
<path fill="none" stroke="black" d="M749.64,-374.09C749.64,-342.52 749.64,-304.5 749.64,-268.28"/>
<polygon fill="black" stroke="black" points="753.14,-268.12 749.64,-258.12 746.14,-268.12 753.14,-268.12"/>
<text text-anchor="middle" x="785" y="-319.8" font-family="Times New Roman,serif" font-size="14.00">weatherData</text>
<text text-anchor="middle" x="785" y="-303" font-family="Times New Roman,serif" font-size="14.00">[0..1]</text>
</g>
<!-- StatisticsDisplay2073379327&#45;&gt;WeatherData1794189726 -->
<g id="edge9" class="edge">
<title>StatisticsDisplay2073379327&#45;&gt;WeatherData1794189726</title>
<path fill="none" stroke="black" d="M1023.62,-350.3C977.47,-314.54 925.01,-273.89 878.44,-237.81"/>
<polygon fill="black" stroke="black" points="880.47,-234.95 870.42,-231.59 876.18,-240.48 880.47,-234.95"/>
<text text-anchor="middle" x="1031" y="-319.8" font-family="Times New Roman,serif" font-size="14.00">weatherData</text>
<text text-anchor="middle" x="1031" y="-303" font-family="Times New Roman,serif" font-size="14.00">[0..1]</text>
</g>
</g>
</svg>
